
<svg width="1024" height="1024" viewBox="0 0 1024 1024" fill="none" xmlns="http://www.w3.org/2000/svg">
  <path d="M512 0C229.23 0 0 229.23 0 512c0 282.77 229.23 512 512 512s512-229.23 512-512C1024 229.23 794.77 0 512 0zm0 938.67c-235.64 0-426.67-191.03-426.67-426.67S276.36 85.33 512 85.33 938.67 276.36 938.67 512 747.64 938.67 512 938.67z" fill="#0D2F1E"/>
  <path d="M469.33 298.67c-94.26 0-170.67 76.41-170.67 170.67v85.33c0 94.26 76.41 170.67 170.67 170.67S640 648.93 640 554.67v-85.33c0-94.26-76.41-170.67-170.67-170.67zm85.34 256c0 47.13-38.21 85.33-85.34 85.33s-85.33-38.2-85.33-85.33v-85.33c0-47.13 38.2-85.34 85.33-85.34s85.34 38.21 85.34 85.34v85.33z" fill="#0D2F1E"/>
</svg>
